<svg width="80" height="80" viewBox="0 0 80 80" xmlns="http://www.w3.org/2000/svg">
  <defs>
    <linearGradient id="brainGradient" x1="0%" y1="0%" x2="100%" y2="100%">
      <stop offset="0%" style="stop-color:#667eea;stop-opacity:1" />
      <stop offset="100%" style="stop-color:#764ba2;stop-opacity:1" />
    </linearGradient>
    <filter id="glow">
      <feGaussianBlur stdDeviation="3" result="coloredBlur"/>
      <feMerge> 
        <feMergeNode in="coloredBlur"/>
        <feMergeNode in="SourceGraphic"/>
      </feMerge>
    </filter>
  </defs>
  
  <!-- Brain outline -->
  <path d="M25 20 C15 20, 10 30, 15 40 C10 45, 12 55, 20 58 C18 65, 25 70, 35 68 C40 72, 50 70, 55 65 C65 68, 70 60, 68 50 C75 45, 70 35, 65 30 C70 20, 60 15, 50 18 C45 12, 35 15, 30 20 Z" 
        fill="url(#brainGradient)" 
        filter="url(#glow)" 
        opacity="0.9"/>
  
  <!-- Neural network nodes -->
  <circle cx="30" cy="35" r="3" fill="#ffffff" opacity="0.8"/>
  <circle cx="45" cy="30" r="3" fill="#ffffff" opacity="0.8"/>
  <circle cx="55" cy="40" r="3" fill="#ffffff" opacity="0.8"/>
  <circle cx="35" cy="50" r="3" fill="#ffffff" opacity="0.8"/>
  <circle cx="50" cy="55" r="3" fill="#ffffff" opacity="0.8"/>
  
  <!-- Neural connections -->
  <line x1="30" y1="35" x2="45" y2="30" stroke="#ffffff" stroke-width="1.5" opacity="0.6"/>
  <line x1="45" y1="30" x2="55" y2="40" stroke="#ffffff" stroke-width="1.5" opacity="0.6"/>
  <line x1="30" y1="35" x2="35" y2="50" stroke="#ffffff" stroke-width="1.5" opacity="0.6"/>
  <line x1="55" y1="40" x2="50" y2="55" stroke="#ffffff" stroke-width="1.5" opacity="0.6"/>
  <line x1="35" y1="50" x2="50" y2="55" stroke="#ffffff" stroke-width="1.5" opacity="0.6"/>
  
  <!-- Animated pulse -->
  <circle cx="40" cy="42" r="2" fill="#ffffff">
    <animate attributeName="r" values="2;4;2" dur="2s" repeatCount="indefinite"/>
    <animate attributeName="opacity" values="0.8;0.3;0.8" dur="2s" repeatCount="indefinite"/>
  </circle>
</svg>